<mxfile host="app.diagrams.net" agent="Mozilla/5.0 (Windows NT 10.0; Win64; x64; rv:134.0) Gecko/20100101 Firefox/134.0" version="26.0.8">
  <diagram name="Page-1" id="rvxdswPpxdnA73cwBW_b">
    <mxGraphModel dx="1877" dy="1746" grid="1" gridSize="10" guides="1" tooltips="1" connect="1" arrows="1" fold="1" page="1" pageScale="1" pageWidth="827" pageHeight="1169" math="0" shadow="0">
      <root>
        <mxCell id="0" />
        <mxCell id="1" parent="0" />
        <mxCell id="GMc7GOkL7Nr8vXzrnaBm-32" style="edgeStyle=orthogonalEdgeStyle;rounded=0;orthogonalLoop=1;jettySize=auto;html=1;exitX=0.5;exitY=1;exitDx=0;exitDy=0;entryX=0.5;entryY=0;entryDx=0;entryDy=0;" edge="1" parent="1" source="4lTw-KqsmBAIjCPtbyVE-1" target="GMc7GOkL7Nr8vXzrnaBm-29">
          <mxGeometry relative="1" as="geometry" />
        </mxCell>
        <mxCell id="GMc7GOkL7Nr8vXzrnaBm-33" style="edgeStyle=orthogonalEdgeStyle;rounded=0;orthogonalLoop=1;jettySize=auto;html=1;exitX=0.5;exitY=1;exitDx=0;exitDy=0;entryX=0.5;entryY=0;entryDx=0;entryDy=0;" edge="1" parent="1" source="4lTw-KqsmBAIjCPtbyVE-1" target="GMc7GOkL7Nr8vXzrnaBm-27">
          <mxGeometry relative="1" as="geometry" />
        </mxCell>
        <mxCell id="4lTw-KqsmBAIjCPtbyVE-1" value="&lt;div&gt;&lt;font&gt;Model&lt;/font&gt;&lt;/div&gt;" style="rounded=0;whiteSpace=wrap;html=1;align=center;fontSize=18;" parent="1" vertex="1">
          <mxGeometry x="345" y="10" width="260" height="60" as="geometry" />
        </mxCell>
        <mxCell id="4lTw-KqsmBAIjCPtbyVE-12" value="Company" style="rounded=0;whiteSpace=wrap;html=1;verticalAlign=middle;" parent="1" vertex="1">
          <mxGeometry x="-720" y="320" width="120" height="60" as="geometry" />
        </mxCell>
        <mxCell id="4lTw-KqsmBAIjCPtbyVE-13" value="Farm" style="rounded=0;whiteSpace=wrap;html=1;verticalAlign=middle;" parent="1" vertex="1">
          <mxGeometry x="-554" y="320" width="120" height="60" as="geometry" />
        </mxCell>
        <mxCell id="4lTw-KqsmBAIjCPtbyVE-14" value="Field" style="rounded=0;whiteSpace=wrap;html=1;verticalAlign=middle;" parent="1" vertex="1">
          <mxGeometry x="-388" y="320" width="120" height="60" as="geometry" />
        </mxCell>
        <mxCell id="4lTw-KqsmBAIjCPtbyVE-20" value="&lt;div&gt;Fertilizer&lt;/div&gt;" style="rounded=0;whiteSpace=wrap;html=1;verticalAlign=middle;" parent="1" vertex="1">
          <mxGeometry x="-222" y="320" width="120" height="60" as="geometry" />
        </mxCell>
        <mxCell id="4lTw-KqsmBAIjCPtbyVE-21" value="&lt;div&gt;Spray&lt;/div&gt;" style="rounded=0;whiteSpace=wrap;html=1;verticalAlign=middle;" parent="1" vertex="1">
          <mxGeometry x="-56" y="320" width="120" height="60" as="geometry" />
        </mxCell>
        <mxCell id="4lTw-KqsmBAIjCPtbyVE-23" value="&lt;div&gt;CompanyID&lt;/div&gt;" style="rounded=1;whiteSpace=wrap;html=1;align=left;" parent="1" vertex="1">
          <mxGeometry x="-720" y="400" width="70" height="20" as="geometry" />
        </mxCell>
        <mxCell id="4lTw-KqsmBAIjCPtbyVE-24" value="&lt;div&gt;CompanyID&lt;/div&gt;" style="rounded=1;whiteSpace=wrap;html=1;align=left;" parent="1" vertex="1">
          <mxGeometry x="-552" y="400" width="70" height="20" as="geometry" />
        </mxCell>
        <mxCell id="4lTw-KqsmBAIjCPtbyVE-26" value="&lt;div&gt;CompanyID&lt;/div&gt;" style="rounded=1;whiteSpace=wrap;html=1;align=left;" parent="1" vertex="1">
          <mxGeometry x="-385" y="400" width="70" height="20" as="geometry" />
        </mxCell>
        <mxCell id="4lTw-KqsmBAIjCPtbyVE-27" value="&lt;div&gt;FertilizerID&lt;/div&gt;" style="rounded=1;whiteSpace=wrap;html=1;align=left;" parent="1" vertex="1">
          <mxGeometry x="-217" y="400" width="70" height="20" as="geometry" />
        </mxCell>
        <mxCell id="4lTw-KqsmBAIjCPtbyVE-31" value="&lt;div&gt;FarmName&lt;/div&gt;" style="rounded=1;whiteSpace=wrap;html=1;align=left;" parent="1" vertex="1">
          <mxGeometry x="-552" y="440" width="70" height="20" as="geometry" />
        </mxCell>
        <mxCell id="4lTw-KqsmBAIjCPtbyVE-32" value="&lt;div&gt;CompanyName&lt;/div&gt;" style="rounded=1;whiteSpace=wrap;html=1;align=left;" parent="1" vertex="1">
          <mxGeometry x="-720" y="420" width="100" height="20" as="geometry" />
        </mxCell>
        <mxCell id="4lTw-KqsmBAIjCPtbyVE-33" value="&lt;div&gt;FarmID&lt;/div&gt;" style="rounded=1;whiteSpace=wrap;html=1;align=left;" parent="1" vertex="1">
          <mxGeometry x="-552" y="420" width="70" height="20" as="geometry" />
        </mxCell>
        <mxCell id="4lTw-KqsmBAIjCPtbyVE-34" value="&lt;div&gt;FarmID&lt;/div&gt;" style="rounded=1;whiteSpace=wrap;html=1;align=left;" parent="1" vertex="1">
          <mxGeometry x="-385" y="420" width="70" height="20" as="geometry" />
        </mxCell>
        <mxCell id="4lTw-KqsmBAIjCPtbyVE-35" value="&lt;div&gt;FieldID&lt;/div&gt;" style="rounded=1;whiteSpace=wrap;html=1;align=left;" parent="1" vertex="1">
          <mxGeometry x="-385" y="440" width="70" height="20" as="geometry" />
        </mxCell>
        <mxCell id="4lTw-KqsmBAIjCPtbyVE-40" value="&lt;div&gt;CompanyID&lt;/div&gt;" style="rounded=1;whiteSpace=wrap;html=1;align=left;" parent="1" vertex="1">
          <mxGeometry x="-50" y="400" width="70" height="20" as="geometry" />
        </mxCell>
        <mxCell id="4lTw-KqsmBAIjCPtbyVE-41" value="&lt;div&gt;FarmID&lt;/div&gt;" style="rounded=1;whiteSpace=wrap;html=1;align=left;" parent="1" vertex="1">
          <mxGeometry x="-50" y="420" width="70" height="20" as="geometry" />
        </mxCell>
        <mxCell id="4lTw-KqsmBAIjCPtbyVE-42" value="&lt;div&gt;FieldID&lt;/div&gt;" style="rounded=1;whiteSpace=wrap;html=1;align=left;" parent="1" vertex="1">
          <mxGeometry x="-50" y="440" width="70" height="20" as="geometry" />
        </mxCell>
        <mxCell id="4lTw-KqsmBAIjCPtbyVE-43" value="&lt;div&gt;SprayID&lt;/div&gt;" style="rounded=1;whiteSpace=wrap;html=1;align=left;" parent="1" vertex="1">
          <mxGeometry x="-50" y="460" width="70" height="20" as="geometry" />
        </mxCell>
        <mxCell id="4lTw-KqsmBAIjCPtbyVE-46" value="FieldName" style="rounded=1;whiteSpace=wrap;html=1;align=left;" parent="1" vertex="1">
          <mxGeometry x="-385" y="460" width="140" height="20" as="geometry" />
        </mxCell>
        <mxCell id="4lTw-KqsmBAIjCPtbyVE-47" value="&lt;div&gt;FieldHectares&lt;/div&gt;" style="rounded=1;whiteSpace=wrap;html=1;align=left;" parent="1" vertex="1">
          <mxGeometry x="-385" y="480" width="140" height="20" as="geometry" />
        </mxCell>
        <mxCell id="4lTw-KqsmBAIjCPtbyVE-48" value="FieldRunTimeInMinutes" style="rounded=1;whiteSpace=wrap;html=1;align=left;" parent="1" vertex="1">
          <mxGeometry x="-385" y="500" width="140" height="20" as="geometry" />
        </mxCell>
        <mxCell id="4lTw-KqsmBAIjCPtbyVE-51" value="&lt;div&gt;FertilizerName&lt;/div&gt;" style="rounded=1;whiteSpace=wrap;html=1;align=left;" parent="1" vertex="1">
          <mxGeometry x="-217" y="420" width="120" height="20" as="geometry" />
        </mxCell>
        <mxCell id="4lTw-KqsmBAIjCPtbyVE-53" value="FieldName" style="rounded=1;whiteSpace=wrap;html=1;align=left;" parent="1" vertex="1">
          <mxGeometry x="-50" y="480" width="140" height="20" as="geometry" />
        </mxCell>
        <mxCell id="4lTw-KqsmBAIjCPtbyVE-54" value="&lt;div&gt;FieldHectares&lt;/div&gt;" style="rounded=1;whiteSpace=wrap;html=1;align=left;" parent="1" vertex="1">
          <mxGeometry x="-50" y="500" width="140" height="20" as="geometry" />
        </mxCell>
        <mxCell id="4lTw-KqsmBAIjCPtbyVE-55" value="FieldRunTimeInMinutes" style="rounded=1;whiteSpace=wrap;html=1;align=left;" parent="1" vertex="1">
          <mxGeometry x="-50" y="520" width="140" height="20" as="geometry" />
        </mxCell>
        <mxCell id="4lTw-KqsmBAIjCPtbyVE-59" value="FertilizerChemicalName" style="rounded=1;whiteSpace=wrap;html=1;align=left;" parent="1" vertex="1">
          <mxGeometry x="-217" y="440" width="147" height="20" as="geometry" />
        </mxCell>
        <mxCell id="4lTw-KqsmBAIjCPtbyVE-60" value="&lt;div&gt;FertilizerSolubility&lt;/div&gt;" style="rounded=1;whiteSpace=wrap;html=1;align=left;" parent="1" vertex="1">
          <mxGeometry x="-217" y="460" width="120" height="20" as="geometry" />
        </mxCell>
        <mxCell id="4lTw-KqsmBAIjCPtbyVE-61" value="&lt;div&gt;FertilizerDosageperHa&lt;/div&gt;" style="rounded=1;whiteSpace=wrap;html=1;align=left;" parent="1" vertex="1">
          <mxGeometry x="-217" y="480" width="147" height="20" as="geometry" />
        </mxCell>
        <mxCell id="4lTw-KqsmBAIjCPtbyVE-62" value="&lt;div&gt;FertilizerTotalDosage&lt;/div&gt;" style="rounded=1;whiteSpace=wrap;html=1;align=left;" parent="1" vertex="1">
          <mxGeometry x="-217" y="500" width="147" height="20" as="geometry" />
        </mxCell>
        <mxCell id="4lTw-KqsmBAIjCPtbyVE-63" value="&amp;lt;List&amp;gt;&amp;lt;Fertilizer&amp;gt;" style="rounded=1;whiteSpace=wrap;html=1;align=left;" parent="1" vertex="1">
          <mxGeometry x="-50" y="540" width="140" height="20" as="geometry" />
        </mxCell>
        <mxCell id="GMc7GOkL7Nr8vXzrnaBm-2" value="&lt;div&gt;Session&lt;/div&gt;" style="rounded=0;whiteSpace=wrap;html=1;verticalAlign=middle;" vertex="1" parent="1">
          <mxGeometry x="110" y="320" width="120" height="60" as="geometry" />
        </mxCell>
        <mxCell id="GMc7GOkL7Nr8vXzrnaBm-7" value="SessionID" style="rounded=1;whiteSpace=wrap;html=1;align=left;" vertex="1" parent="1">
          <mxGeometry x="110" y="400" width="140" height="20" as="geometry" />
        </mxCell>
        <mxCell id="GMc7GOkL7Nr8vXzrnaBm-8" value="&amp;lt;Company&amp;gt;" style="rounded=1;whiteSpace=wrap;html=1;align=left;" vertex="1" parent="1">
          <mxGeometry x="110" y="420" width="140" height="20" as="geometry" />
        </mxCell>
        <mxCell id="GMc7GOkL7Nr8vXzrnaBm-9" value="&amp;lt;List&amp;gt;&amp;lt;Farm&amp;gt;" style="rounded=1;whiteSpace=wrap;html=1;align=left;" vertex="1" parent="1">
          <mxGeometry x="110" y="440" width="140" height="20" as="geometry" />
        </mxCell>
        <mxCell id="GMc7GOkL7Nr8vXzrnaBm-10" value="&amp;lt;List&amp;gt;&amp;lt;Field&amp;gt;" style="rounded=1;whiteSpace=wrap;html=1;align=left;" vertex="1" parent="1">
          <mxGeometry x="110" y="460" width="140" height="20" as="geometry" />
        </mxCell>
        <mxCell id="GMc7GOkL7Nr8vXzrnaBm-11" value="&amp;lt;List&amp;gt;&amp;lt;Fertilizer&amp;gt;" style="rounded=1;whiteSpace=wrap;html=1;align=left;" vertex="1" parent="1">
          <mxGeometry x="110" y="480" width="140" height="20" as="geometry" />
        </mxCell>
        <mxCell id="GMc7GOkL7Nr8vXzrnaBm-12" value="&amp;lt;Spray&amp;gt;" style="rounded=1;whiteSpace=wrap;html=1;align=left;" vertex="1" parent="1">
          <mxGeometry x="110" y="500" width="140" height="20" as="geometry" />
        </mxCell>
        <mxCell id="GMc7GOkL7Nr8vXzrnaBm-35" style="edgeStyle=orthogonalEdgeStyle;rounded=0;orthogonalLoop=1;jettySize=auto;html=1;exitX=0.5;exitY=1;exitDx=0;exitDy=0;entryX=0.5;entryY=0;entryDx=0;entryDy=0;" edge="1" parent="1" source="GMc7GOkL7Nr8vXzrnaBm-27" target="4lTw-KqsmBAIjCPtbyVE-12">
          <mxGeometry relative="1" as="geometry" />
        </mxCell>
        <mxCell id="GMc7GOkL7Nr8vXzrnaBm-36" style="edgeStyle=orthogonalEdgeStyle;rounded=0;orthogonalLoop=1;jettySize=auto;html=1;exitX=0.5;exitY=1;exitDx=0;exitDy=0;entryX=0.5;entryY=0;entryDx=0;entryDy=0;" edge="1" parent="1" source="GMc7GOkL7Nr8vXzrnaBm-27" target="4lTw-KqsmBAIjCPtbyVE-13">
          <mxGeometry relative="1" as="geometry" />
        </mxCell>
        <mxCell id="GMc7GOkL7Nr8vXzrnaBm-37" style="edgeStyle=orthogonalEdgeStyle;rounded=0;orthogonalLoop=1;jettySize=auto;html=1;exitX=0.5;exitY=1;exitDx=0;exitDy=0;entryX=0.5;entryY=0;entryDx=0;entryDy=0;" edge="1" parent="1" source="GMc7GOkL7Nr8vXzrnaBm-27" target="4lTw-KqsmBAIjCPtbyVE-14">
          <mxGeometry relative="1" as="geometry" />
        </mxCell>
        <mxCell id="GMc7GOkL7Nr8vXzrnaBm-38" style="edgeStyle=orthogonalEdgeStyle;rounded=0;orthogonalLoop=1;jettySize=auto;html=1;exitX=0.5;exitY=1;exitDx=0;exitDy=0;entryX=0.5;entryY=0;entryDx=0;entryDy=0;" edge="1" parent="1" source="GMc7GOkL7Nr8vXzrnaBm-27" target="4lTw-KqsmBAIjCPtbyVE-20">
          <mxGeometry relative="1" as="geometry" />
        </mxCell>
        <mxCell id="GMc7GOkL7Nr8vXzrnaBm-39" style="edgeStyle=orthogonalEdgeStyle;rounded=0;orthogonalLoop=1;jettySize=auto;html=1;exitX=0.5;exitY=1;exitDx=0;exitDy=0;entryX=0.5;entryY=0;entryDx=0;entryDy=0;" edge="1" parent="1" source="GMc7GOkL7Nr8vXzrnaBm-27" target="4lTw-KqsmBAIjCPtbyVE-21">
          <mxGeometry relative="1" as="geometry" />
        </mxCell>
        <mxCell id="GMc7GOkL7Nr8vXzrnaBm-40" style="edgeStyle=orthogonalEdgeStyle;rounded=0;orthogonalLoop=1;jettySize=auto;html=1;exitX=0.5;exitY=1;exitDx=0;exitDy=0;entryX=0.5;entryY=0;entryDx=0;entryDy=0;" edge="1" parent="1" source="GMc7GOkL7Nr8vXzrnaBm-27" target="GMc7GOkL7Nr8vXzrnaBm-2">
          <mxGeometry relative="1" as="geometry" />
        </mxCell>
        <mxCell id="GMc7GOkL7Nr8vXzrnaBm-27" value="DTO" style="ellipse;whiteSpace=wrap;html=1;fontSize=18;" vertex="1" parent="1">
          <mxGeometry x="-300" y="120" width="120" height="80" as="geometry" />
        </mxCell>
        <mxCell id="GMc7GOkL7Nr8vXzrnaBm-29" value="Functions" style="ellipse;whiteSpace=wrap;html=1;fontSize=16;" vertex="1" parent="1">
          <mxGeometry x="414" y="120" width="120" height="80" as="geometry" />
        </mxCell>
        <mxCell id="GMc7GOkL7Nr8vXzrnaBm-47" style="edgeStyle=orthogonalEdgeStyle;rounded=0;orthogonalLoop=1;jettySize=auto;html=1;exitX=0.5;exitY=1;exitDx=0;exitDy=0;entryX=0.5;entryY=0;entryDx=0;entryDy=0;" edge="1" parent="1" source="GMc7GOkL7Nr8vXzrnaBm-41" target="GMc7GOkL7Nr8vXzrnaBm-42">
          <mxGeometry relative="1" as="geometry" />
        </mxCell>
        <mxCell id="GMc7GOkL7Nr8vXzrnaBm-41" value="Farm Buddy V4 WinForms" style="rounded=0;whiteSpace=wrap;html=1;align=center;fontSize=21;" vertex="1" parent="1">
          <mxGeometry x="700" y="-250" width="260" height="60" as="geometry" />
        </mxCell>
        <mxCell id="GMc7GOkL7Nr8vXzrnaBm-48" style="edgeStyle=orthogonalEdgeStyle;rounded=0;orthogonalLoop=1;jettySize=auto;html=1;exitX=0.5;exitY=1;exitDx=0;exitDy=0;entryX=0.5;entryY=0;entryDx=0;entryDy=0;" edge="1" parent="1" source="GMc7GOkL7Nr8vXzrnaBm-42" target="GMc7GOkL7Nr8vXzrnaBm-43">
          <mxGeometry relative="1" as="geometry" />
        </mxCell>
        <mxCell id="GMc7GOkL7Nr8vXzrnaBm-49" style="edgeStyle=orthogonalEdgeStyle;rounded=0;orthogonalLoop=1;jettySize=auto;html=1;exitX=0.5;exitY=1;exitDx=0;exitDy=0;entryX=0.5;entryY=0;entryDx=0;entryDy=0;" edge="1" parent="1" source="GMc7GOkL7Nr8vXzrnaBm-42" target="4lTw-KqsmBAIjCPtbyVE-1">
          <mxGeometry relative="1" as="geometry" />
        </mxCell>
        <mxCell id="GMc7GOkL7Nr8vXzrnaBm-51" style="edgeStyle=orthogonalEdgeStyle;rounded=0;orthogonalLoop=1;jettySize=auto;html=1;exitX=0.5;exitY=1;exitDx=0;exitDy=0;entryX=0.5;entryY=0;entryDx=0;entryDy=0;" edge="1" parent="1" source="GMc7GOkL7Nr8vXzrnaBm-42" target="GMc7GOkL7Nr8vXzrnaBm-50">
          <mxGeometry relative="1" as="geometry" />
        </mxCell>
        <mxCell id="GMc7GOkL7Nr8vXzrnaBm-42" value="&lt;div&gt;Program&lt;/div&gt;" style="rounded=0;whiteSpace=wrap;html=1;align=center;fontSize=20;" vertex="1" parent="1">
          <mxGeometry x="700" y="-130" width="260" height="60" as="geometry" />
        </mxCell>
        <mxCell id="GMc7GOkL7Nr8vXzrnaBm-43" value="View" style="rounded=0;whiteSpace=wrap;html=1;align=center;fontSize=18;" vertex="1" parent="1">
          <mxGeometry x="700" y="10" width="260" height="60" as="geometry" />
        </mxCell>
        <mxCell id="GMc7GOkL7Nr8vXzrnaBm-50" value="Control" style="rounded=0;whiteSpace=wrap;html=1;align=center;fontSize=18;" vertex="1" parent="1">
          <mxGeometry x="1050" y="10" width="260" height="60" as="geometry" />
        </mxCell>
      </root>
    </mxGraphModel>
  </diagram>
</mxfile>
